<svg xmlns="http://www.w3.org/2000/svg" viewBox="0 0 96 96" role="img" aria-labelledby="title">
  <title>Taco Bell</title>
  <defs>
    <linearGradient id="tbBg" x1="0%" y1="0%" x2="100%" y2="100%">
      <stop offset="0%" stop-color="#7c3aed"/>
      <stop offset="100%" stop-color="#5b21b6"/>
    </linearGradient>
  </defs>
  <rect x="4" y="4" width="88" height="88" rx="24" fill="url(#tbBg)"/>
  <path d="M48 19c-9 0-16 7-16 16 0 5 2 9 6 12-7 3-12 10-12 19h8c0-9 6-15 14-15s14 6 14 15h8c0-9-5-16-12-19 4-3 6-7 6-12 0-9-7-16-16-16Zm0 8c4 0 8 4 8 8s-4 8-8 8-8-4-8-8 4-8 8-8Z" fill="#fff" opacity=".96"/>
  <text x="48" y="81" text-anchor="middle" font-family="Inter, Arial, sans-serif" font-size="12" font-weight="700" fill="#fff">Taco Bell</text>
</svg>
